<svg width="20" height="21" viewBox="0 0 20 21" fill="none" xmlns="http://www.w3.org/2000/svg">
<path d="M17.5 16.125H16.875V3.625C16.875 3.45924 16.8092 3.30027 16.6919 3.18306C16.5747 3.06585 16.4158 3 16.25 3H11.875C11.7092 3 11.5503 3.06585 11.4331 3.18306C11.3158 3.30027 11.25 3.45924 11.25 3.625V6.75H7.5C7.33424 6.75 7.17527 6.81585 7.05806 6.93306C6.94085 7.05027 6.875 7.20924 6.875 7.375V10.5H3.75C3.58424 10.5 3.42527 10.5658 3.30806 10.6831C3.19085 10.8003 3.125 10.9592 3.125 11.125V16.125H2.5C2.33424 16.125 2.17527 16.1908 2.05806 16.3081C1.94085 16.4253 1.875 16.5842 1.875 16.75C1.875 16.9158 1.94085 17.0747 2.05806 17.1919C2.17527 17.3092 2.33424 17.375 2.5 17.375H17.5C17.6658 17.375 17.8247 17.3092 17.9419 17.1919C18.0592 17.0747 18.125 16.9158 18.125 16.75C18.125 16.5842 18.0592 16.4253 17.9419 16.3081C17.8247 16.1908 17.6658 16.125 17.5 16.125ZM12.5 4.25H15.625V16.125H12.5V4.25ZM8.125 8H11.25V16.125H8.125V8ZM4.375 11.75H6.875V16.125H4.375V11.75Z" fill="#27909C"/>
</svg>
