<svg width="20" height="21" viewBox="0 0 20 21" fill="none" xmlns="http://www.w3.org/2000/svg">
<path d="M13.933 13.4422L12.5002 12.0086V16.75C12.5002 16.9158 12.4343 17.0747 12.3171 17.1919C12.1999 17.3092 12.0409 17.375 11.8752 17.375C11.7094 17.375 11.5504 17.3092 11.4332 17.1919C11.316 17.0747 11.2502 16.9158 11.2502 16.75V12.0086L9.81736 13.4422C9.75929 13.5003 9.69035 13.5463 9.61448 13.5777C9.53861 13.6092 9.45729 13.6253 9.37517 13.6253C9.29305 13.6253 9.21173 13.6092 9.13586 13.5777C9.05999 13.5463 8.99105 13.5003 8.93298 13.4422C8.87492 13.3841 8.82885 13.3152 8.79743 13.2393C8.766 13.1634 8.74982 13.0821 8.74982 13C8.74982 12.9179 8.766 12.8366 8.79743 12.7607C8.82885 12.6848 8.87492 12.6159 8.93298 12.5578L11.433 10.0578C11.491 9.9997 11.56 9.9536 11.6358 9.92215C11.7117 9.8907 11.793 9.87451 11.8752 9.87451C11.9573 9.87451 12.0386 9.8907 12.1145 9.92215C12.1904 9.9536 12.2593 9.9997 12.3174 10.0578L14.8174 12.5578C14.8754 12.6159 14.9215 12.6848 14.9529 12.7607C14.9843 12.8366 15.0005 12.9179 15.0005 13C15.0005 13.0821 14.9843 13.1634 14.9529 13.2393C14.9215 13.3152 14.8754 13.3841 14.8174 13.4422C14.7593 13.5003 14.6904 13.5463 14.6145 13.5777C14.5386 13.6092 14.4573 13.6253 14.3752 13.6253C14.2931 13.6253 14.2117 13.6092 14.1359 13.5777C14.06 13.5463 13.9911 13.5003 13.933 13.4422ZM12.5002 3.625C11.2233 3.62596 9.97181 3.9822 8.88582 4.65386C7.79983 5.32551 6.92214 6.28609 6.35095 7.42812C5.67089 7.32819 4.97753 7.36955 4.31418 7.54962C3.65082 7.72969 3.03171 8.0446 2.49552 8.47468C1.95934 8.90476 1.51759 9.44078 1.19786 10.0493C0.878135 10.6577 0.687302 11.3256 0.637281 12.0111C0.58726 12.6967 0.679125 13.3852 0.907139 14.0336C1.13515 14.6821 1.49442 15.2765 1.9625 15.7799C2.43057 16.2832 2.99741 16.6847 3.6276 16.9591C4.2578 17.2336 4.93781 17.3752 5.62517 17.375H8.75017C8.91593 17.375 9.0749 17.3092 9.19211 17.1919C9.30932 17.0747 9.37517 16.9158 9.37517 16.75C9.37517 16.5842 9.30932 16.4253 9.19211 16.3081C9.0749 16.1908 8.91593 16.125 8.75017 16.125H5.62517C4.63061 16.125 3.67678 15.7299 2.97352 15.0267C2.27026 14.3234 1.87517 13.3696 1.87517 12.375C1.87517 11.3804 2.27026 10.4266 2.97352 9.72335C3.67678 9.02009 4.63061 8.625 5.62517 8.625C5.71111 8.625 5.79705 8.625 5.8822 8.63438C5.71135 9.24152 5.62487 9.86928 5.62517 10.5C5.62517 10.6658 5.69102 10.8247 5.80823 10.9419C5.92544 11.0592 6.08441 11.125 6.25017 11.125C6.41593 11.125 6.5749 11.0592 6.69211 10.9419C6.80932 10.8247 6.87517 10.6658 6.87517 10.5C6.87533 9.48591 7.14962 8.49071 7.66904 7.61974C8.18846 6.74877 8.93367 6.03441 9.82582 5.55227C10.718 5.07013 11.7239 4.83814 12.7371 4.88084C13.7503 4.92355 14.7331 5.23937 15.5815 5.79487C16.4299 6.35038 17.1123 7.12491 17.5566 8.03651C18.0009 8.9481 18.1905 9.96284 18.1053 10.9734C18.0201 11.9839 17.6633 12.9526 17.0727 13.7769C16.4821 14.6013 15.6796 15.2506 14.7502 15.6562C14.6182 15.7135 14.51 15.8144 14.4438 15.9422C14.3776 16.0699 14.3576 16.2165 14.3869 16.3573C14.4163 16.4981 14.4933 16.6245 14.6051 16.7151C14.7168 16.8057 14.8563 16.855 15.0002 16.8547C15.0863 16.8546 15.1715 16.8365 15.2502 16.8016C16.6981 16.17 17.8843 15.059 18.6094 13.6556C19.3345 12.2521 19.5541 10.6418 19.2314 9.09542C18.9086 7.54906 18.0632 6.16101 16.8373 5.16473C15.6114 4.16845 14.0799 3.62473 12.5002 3.625Z" fill="#27909C"/>
</svg>
