<svg width="20" height="21" viewBox="0 0 20 21" fill="none" xmlns="http://www.w3.org/2000/svg">
<path d="M17.8469 7.4796L10.3469 2.47961C10.2442 2.41108 10.1235 2.37451 10 2.37451C9.87653 2.37451 9.75583 2.41108 9.65312 2.47961L2.15313 7.4796C2.06751 7.53673 1.99732 7.61411 1.9488 7.70488C1.90029 7.79565 1.87493 7.89699 1.875 7.99992V16.1249C1.875 16.4564 2.0067 16.7744 2.24112 17.0088C2.47554 17.2432 2.79348 17.3749 3.125 17.3749H16.875C17.2065 17.3749 17.5245 17.2432 17.7589 17.0088C17.9933 16.7744 18.125 16.4564 18.125 16.1249V7.99992C18.1251 7.89699 18.0997 7.79565 18.0512 7.70488C18.0027 7.61411 17.9325 7.53673 17.8469 7.4796ZM10 3.7507L16.3992 8.01711L11.1648 11.7499H8.83672L3.60234 8.01711L10 3.7507ZM3.125 16.1249V9.2132L8.27344 12.8851C8.37944 12.9608 8.50645 13.0015 8.63672 13.0015H11.3633C11.4935 13.0015 11.6206 12.9608 11.7266 12.8851L16.875 9.2132V16.1249H3.125Z" fill="#27909C"/>
</svg>
