<svg width="415" height="383" viewBox="0 0 415 383" fill="none" xmlns="http://www.w3.org/2000/svg">
<g filter="url(#filter0_dddd_272_3125)">
<g clip-path="url(#clip0_272_3125)">
<rect x="6" y="7" width="332" height="311" rx="15" fill="#FAFBFB"/>
<g filter="url(#filter1_f_272_3125)">
<ellipse cx="177.5" cy="60.5" rx="194.5" ry="51.5" fill="#A9D3D7"/>
</g>
<g clip-path="url(#clip1_272_3125)">
<mask id="path-4-outside-1_272_3125" maskUnits="userSpaceOnUse" x="7" y="8" width="331" height="52" fill="black">
<rect fill="white" x="7" y="8" width="331" height="52"/>
<path d="M7 8H338V59H7V8Z"/>
</mask>
<path d="M7 8H338V59H7V8Z" fill="white"/>
<g filter="url(#filter2_f_272_3125)">
<ellipse cx="135.5" cy="33.5" rx="132.5" ry="16.5" fill="#D4E9EB"/>
</g>
<g filter="url(#filter3_f_272_3125)">
<ellipse cx="186.5" cy="33.5" rx="61.5" ry="16.5" fill="#E9F4F5"/>
</g>
<g filter="url(#filter4_f_272_3125)">
<ellipse cx="308.5" cy="33.5" rx="61.5" ry="16.5" fill="#BEDEE1"/>
</g>
<circle cx="37" cy="33" r="8" fill="#A9D3D7"/>
<circle cx="59" cy="33" r="8" fill="#A9D3D7"/>
<circle cx="81" cy="33" r="8" fill="#A9D3D7"/>
<path d="M320.531 42.4696L315.837 37.7765C317.197 36.1431 317.876 34.048 317.731 31.9272C317.586 29.8063 316.629 27.8229 315.059 26.3896C313.489 24.9562 311.427 24.1833 309.302 24.2316C307.177 24.2799 305.152 25.1457 303.649 26.6489C302.146 28.1521 301.28 30.1769 301.232 32.3021C301.183 34.4274 301.956 36.4894 303.39 38.0593C304.823 39.6293 306.806 40.5861 308.927 40.7309C311.048 40.8757 313.143 40.1973 314.776 38.8368L319.47 43.5308C319.539 43.6005 319.622 43.6558 319.713 43.6935C319.804 43.7312 319.902 43.7506 320 43.7506C320.099 43.7506 320.196 43.7312 320.287 43.6935C320.378 43.6558 320.461 43.6005 320.531 43.5308C320.601 43.4612 320.656 43.3784 320.694 43.2874C320.731 43.1963 320.751 43.0988 320.751 43.0002C320.751 42.9017 320.731 42.8041 320.694 42.713C320.656 42.622 320.601 42.5393 320.531 42.4696ZM302.75 32.5002C302.75 31.1652 303.146 29.8601 303.888 28.7501C304.629 27.6401 305.684 26.7749 306.917 26.264C308.151 25.7531 309.508 25.6195 310.817 25.8799C312.126 26.1404 313.329 26.7832 314.273 27.7272C315.217 28.6712 315.86 29.874 316.121 31.1834C316.381 32.4927 316.247 33.8499 315.736 35.0833C315.226 36.3167 314.36 37.3709 313.25 38.1126C312.14 38.8543 310.835 39.2502 309.5 39.2502C307.711 39.2482 305.995 38.5364 304.729 37.271C303.464 36.0056 302.752 34.2898 302.75 32.5002Z" fill="#7DBCC4"/>
</g>
<path d="M338 59V58H7V59V60H338V59Z" fill="#DEE4E5" mask="url(#path-4-outside-1_272_3125)"/>
<g clip-path="url(#clip2_272_3125)">
<rect x="29" y="73" width="84.6667" height="37" rx="7" fill="#FAFBFB"/>
<rect x="66" y="85" width="30" height="3" rx="1.5" fill="#1F737D"/>
<rect x="66" y="93" width="22" height="3" rx="1.5" fill="#7DBCC4"/>
<path d="M49.875 90C49.875 90.8158 49.6331 91.6134 49.1798 92.2917C48.7266 92.9701 48.0823 93.4988 47.3286 93.811C46.5748 94.1232 45.7454 94.2049 44.9453 94.0457C44.1451 93.8866 43.4101 93.4937 42.8332 92.9168C42.2563 92.3399 41.8634 91.6049 41.7043 90.8047C41.5451 90.0046 41.6268 89.1752 41.939 88.4214C42.2512 87.6677 42.7799 87.0234 43.4583 86.5702C44.1366 86.1169 44.9342 85.875 45.75 85.875C46.8436 85.8762 47.8921 86.3112 48.6654 87.0846C49.4388 87.8579 49.8738 88.9064 49.875 90ZM55.5 90.75C55.5 92.6784 54.9282 94.5634 53.8568 96.1668C52.7855 97.7702 51.2627 99.0199 49.4812 99.7578C47.6996 100.496 45.7392 100.689 43.8479 100.313C41.9566 99.9365 40.2193 99.0079 38.8557 97.6443C37.4922 96.2807 36.5636 94.5434 36.1873 92.6521C35.8111 90.7608 36.0042 88.8004 36.7422 87.0188C37.4801 85.2373 38.7298 83.7145 40.3332 82.6432C41.9366 81.5718 43.8216 81 45.75 81C48.335 81.0027 50.8134 82.0308 52.6413 83.8587C54.4692 85.6866 55.4973 88.165 55.5 90.75ZM54 90.75C53.9988 89.6396 53.7737 88.5408 53.3381 87.5193C52.9025 86.4979 52.2654 85.5748 51.4648 84.8053C50.6643 84.0357 49.7168 83.4355 48.679 83.0405C47.6411 82.6456 46.5343 82.464 45.4247 82.5066C41.0091 82.6772 37.4878 86.355 37.5 90.7734C37.5042 92.7849 38.2461 94.7249 39.585 96.2259C40.1303 95.4351 40.8229 94.7568 41.625 94.2281C41.6934 94.183 41.7747 94.1614 41.8565 94.1669C41.9382 94.1723 42.016 94.2043 42.0778 94.2581C43.097 95.1397 44.3996 95.6249 45.7472 95.6249C47.0948 95.6249 48.3973 95.1397 49.4166 94.2581C49.4784 94.2043 49.5561 94.1723 49.6379 94.1669C49.7197 94.1614 49.801 94.183 49.8694 94.2281C50.6725 94.7565 51.3661 95.4348 51.9122 96.2259C53.2577 94.7194 54.001 92.7699 54 90.75Z" fill="#27909C"/>
<rect x="132.667" y="73" width="84.6667" height="37" rx="7" fill="#FAFBFB"/>
<path d="M159.75 98.5C159.75 98.6989 159.671 98.8897 159.53 99.0303C159.39 99.171 159.199 99.25 159 99.25H141C140.801 99.25 140.61 99.171 140.47 99.0303C140.329 98.8897 140.25 98.6989 140.25 98.5C140.25 98.3011 140.329 98.1103 140.47 97.9697C140.61 97.829 140.801 97.75 141 97.75H141.75V91.75C141.75 91.5511 141.829 91.3603 141.97 91.2197C142.11 91.079 142.301 91 142.5 91H144.75C144.949 91 145.14 91.079 145.28 91.2197C145.421 91.3603 145.5 91.5511 145.5 91.75V97.75H147V87.25C147 87.0511 147.079 86.8603 147.22 86.7197C147.36 86.579 147.551 86.5 147.75 86.5H150.75C150.949 86.5 151.14 86.579 151.28 86.7197C151.421 86.8603 151.5 87.0511 151.5 87.25V97.75H153V82.75C153 82.5511 153.079 82.3603 153.22 82.2197C153.36 82.079 153.551 82 153.75 82H157.5C157.699 82 157.89 82.079 158.03 82.2197C158.171 82.3603 158.25 82.5511 158.25 82.75V97.75H159C159.199 97.75 159.39 97.829 159.53 97.9697C159.671 98.1103 159.75 98.3011 159.75 98.5Z" fill="#27909C"/>
<rect x="170" y="85" width="30" height="3" rx="1.5" fill="#1F737D"/>
<rect x="170" y="93" width="22" height="3" rx="1.5" fill="#7DBCC4"/>
<rect x="236.333" y="73" width="84.6667" height="37" rx="7" fill="#FAFBFB"/>
<path d="M252.25 94.1819V100.308C252.25 100.361 252.239 100.413 252.218 100.462C252.196 100.51 252.165 100.554 252.125 100.589C252.086 100.625 252.039 100.651 251.989 100.667C251.938 100.683 251.885 100.689 251.832 100.683C250.099 100.47 248.454 99.7966 247.07 98.7332C245.685 97.6698 244.61 96.255 243.957 94.6356C243.937 94.5864 243.928 94.5336 243.931 94.4807C243.933 94.4278 243.947 94.376 243.971 94.3287C243.994 94.2814 244.028 94.2397 244.069 94.2063C244.11 94.1729 244.158 94.1486 244.209 94.135L250.124 92.5469C250.199 92.527 250.28 92.5314 250.353 92.5593C250.426 92.5872 250.488 92.6373 250.532 92.7025C250.89 93.2206 251.401 93.6139 251.993 93.8275C252.068 93.8523 252.133 93.8998 252.179 93.9633C252.225 94.0269 252.25 94.1034 252.25 94.1819ZM253.006 81.25C252.907 81.2493 252.809 81.2681 252.717 81.3055C252.625 81.3428 252.542 81.398 252.472 81.4677C252.401 81.5374 252.346 81.6203 252.308 81.7117C252.27 81.8031 252.25 81.9011 252.25 82V87.25C252.249 87.4473 252.325 87.6371 252.464 87.7777C252.602 87.9183 252.791 87.9983 252.988 88C253.696 87.997 254.383 88.2446 254.926 88.6992C255.469 89.1537 255.834 89.7858 255.956 90.4836C256.078 91.1814 255.949 91.8997 255.592 92.5116C255.235 93.1234 254.673 93.5893 254.006 93.8266C253.931 93.8515 253.867 93.8992 253.821 93.963C253.775 94.0268 253.75 94.1033 253.75 94.1819V100.308C253.75 100.361 253.761 100.413 253.782 100.461C253.803 100.51 253.835 100.553 253.874 100.589C253.914 100.624 253.96 100.651 254.011 100.667C254.061 100.683 254.115 100.688 254.167 100.683C256.638 100.39 258.904 99.1646 260.5 97.2564C262.096 95.3481 262.903 92.9018 262.755 90.4182C262.606 87.9347 261.514 85.6019 259.701 83.8974C257.889 82.1929 255.494 81.2458 253.006 81.25ZM250.006 90.7647C250.041 90.3217 250.173 89.892 250.395 89.5066V89.5C250.469 89.3717 250.504 89.2242 250.494 89.0761C250.485 88.9281 250.431 88.7862 250.341 88.6685C250.278 88.5874 250.2 88.5196 250.111 88.4688L245.58 85.8494C245.494 85.8002 245.4 85.7683 245.302 85.7555C245.205 85.7427 245.105 85.7493 245.01 85.7749C244.915 85.8005 244.826 85.8446 244.748 85.9046C244.67 85.9647 244.604 86.0396 244.555 86.125C243.464 88.0148 243.037 90.2157 243.344 92.3763C243.351 92.429 243.369 92.4796 243.398 92.5247C243.426 92.5698 243.464 92.6083 243.508 92.6377C243.552 92.6672 243.602 92.6869 243.655 92.6954C243.707 92.704 243.761 92.7013 243.813 92.6875L249.739 91.0938C249.813 91.0735 249.878 91.031 249.927 90.972C249.975 90.9131 250.004 90.8407 250.009 90.7647H250.006Z" fill="#27909C"/>
<rect x="273" y="85" width="30" height="3" rx="1.5" fill="#1F737D"/>
<rect x="273" y="93" width="22" height="3" rx="1.5" fill="#7DBCC4"/>
</g>
<line x1="39" y1="293.5" x2="306" y2="293.5" stroke="#EFF2F2"/>
<line x1="39" y1="256.5" x2="306" y2="256.5" stroke="#EFF2F2"/>
<line x1="39" y1="219.5" x2="306" y2="219.5" stroke="#EFF2F2"/>
<line x1="39" y1="182.5" x2="306" y2="182.5" stroke="#EFF2F2"/>
<mask id="mask0_272_3125" style="mask-type:alpha" maskUnits="userSpaceOnUse" x="58" y="150" width="332" height="151">
<path d="M387.002 193C401.603 237.616 345.787 254.006 253.668 284.151C161.549 314.297 75.0363 302.566 60.436 257.95C45.8357 213.334 101.651 196.944 193.77 166.798C285.889 136.653 372.402 148.384 387.002 193Z" fill="#D9D9D9"/>
</mask>
<g mask="url(#mask0_272_3125)">
<path d="M89.0909 226.776C79 238 43.1818 273.569 35 273V307H310V153L305.909 165.151C301.818 177.303 290.182 198.581 282 210.5C273.818 222.419 264.5 246 252 244C243.818 243.925 236.5 238.301 233 231.151C229.5 224 219.182 179.573 211 178.5C202.818 177.427 197.182 239.846 189 244C180.848 248.139 169.582 237.577 162.801 231.22L162.727 231.151C156.5 226 146.364 211.919 138.182 206.936C130 201.954 119.682 203.709 111.5 206.936C103.318 210.164 99.1817 215.552 89.0909 226.776Z" fill="url(#paint0_linear_272_3125)"/>
<path d="M35.0694 272.002C34.5184 271.964 34.0407 272.38 34.0024 272.931C33.9641 273.482 34.3797 273.959 34.9306 273.998L35 273L35.0694 272.002ZM162.727 231.151L163.411 230.421L163.389 230.4L163.365 230.38L162.727 231.151ZM252 244L252.158 243.013L252.084 243.001L252.009 243L252 244ZM305.909 165.151L306.857 165.47V165.47L305.909 165.151ZM304.667 153C304.667 155.946 307.054 158.333 310 158.333C312.945 158.333 315.333 155.946 315.333 153C315.333 150.054 312.945 147.667 310 147.667C307.054 147.667 304.667 150.054 304.667 153ZM35 273L34.9306 273.998C36.2582 274.09 37.9332 273.468 39.726 272.522C41.5703 271.549 43.7249 270.13 46.0766 268.402C50.7839 264.941 56.3731 260.171 62.0025 255.05C73.2628 244.806 84.7641 233.084 89.8345 227.445L89.0909 226.776L88.3472 226.108C83.3268 231.692 71.8736 243.366 60.6566 253.571C55.0474 258.674 49.5173 263.39 44.8921 266.79C42.5777 268.491 40.5128 269.846 38.7928 270.753C37.0213 271.688 35.7873 272.052 35.0694 272.002L35 273ZM89.0909 226.776L89.8345 227.445C100.007 216.131 103.96 210.986 111.867 207.867L111.5 206.936L111.133 206.006C102.676 209.342 98.357 214.974 88.3472 226.108L89.0909 226.776ZM111.5 206.936L111.867 207.867C119.966 204.672 129.893 203.06 137.662 207.79L138.182 206.936L138.702 206.082C130.107 200.848 119.398 202.746 111.133 206.006L111.5 206.936ZM138.182 206.936L137.662 207.79C141.608 210.194 146.094 214.846 150.446 219.652C154.731 224.383 158.903 229.285 162.09 231.921L162.727 231.151L163.365 230.38C160.325 227.866 156.314 223.152 151.929 218.309C147.61 213.54 142.937 208.661 138.702 206.082L138.182 206.936ZM162.727 231.151L162.043 231.88C165.415 235.041 170.009 239.363 174.805 242.362C179.542 245.324 184.85 247.229 189.453 244.892L189 244L188.547 243.108C184.969 244.925 180.526 243.58 175.865 240.666C171.264 237.789 166.812 233.609 163.411 230.421L162.727 231.151ZM189 244L189.453 244.892C190.166 244.53 190.78 243.899 191.317 243.152C191.862 242.394 192.377 241.447 192.87 240.362C193.854 238.191 194.793 235.36 195.701 232.133C197.518 225.677 199.253 217.482 200.977 209.501C202.707 201.494 204.425 193.71 206.216 187.997C207.113 185.132 208.009 182.855 208.902 181.345C209.349 180.588 209.762 180.084 210.124 179.79C210.473 179.507 210.708 179.47 210.87 179.492L211 178.5L211.13 177.508C210.269 177.396 209.501 177.72 208.865 178.236C208.242 178.741 207.686 179.472 207.18 180.327C206.167 182.041 205.216 184.497 204.307 187.398C202.484 193.216 200.747 201.096 199.023 209.079C197.292 217.088 195.572 225.209 193.776 231.591C192.877 234.784 191.97 237.502 191.048 239.536C190.587 240.553 190.134 241.372 189.694 241.984C189.246 242.607 188.857 242.951 188.547 243.108L189 244ZM211 178.5L210.87 179.492C211.491 179.573 212.335 180.117 213.372 181.404C214.377 182.653 215.427 184.429 216.499 186.614C218.641 190.979 220.79 196.804 222.807 202.862C224.822 208.915 226.69 215.155 228.28 220.351C229.854 225.495 231.183 229.712 232.102 231.59L233 231.151L233.898 230.711C233.067 229.014 231.793 224.996 230.193 219.766C228.608 214.586 226.729 208.313 224.704 202.23C222.682 196.154 220.498 190.224 218.295 185.733C217.195 183.491 216.069 181.565 214.93 180.15C213.822 178.775 212.554 177.695 211.13 177.508L211 178.5ZM233 231.151L232.102 231.59C235.733 239.008 243.356 244.921 251.991 245L252 244L252.009 243C244.28 242.929 237.267 237.594 233.898 230.711L233 231.151ZM252 244L251.842 244.987C255.326 245.545 258.524 244.299 261.419 242.079C264.301 239.869 266.964 236.636 269.443 233.037C271.927 229.431 274.268 225.394 276.485 221.543C278.713 217.674 280.807 214.005 282.824 211.066L282 210.5L281.176 209.934C279.102 212.954 276.963 216.703 274.752 220.545C272.53 224.405 270.227 228.373 267.796 231.902C265.36 235.439 262.838 238.471 260.202 240.492C257.578 242.504 254.924 243.455 252.158 243.013L252 244ZM282 210.5L282.824 211.066C291.036 199.103 302.726 177.74 306.857 165.47L305.909 165.151L304.961 164.832C300.91 176.865 289.328 198.058 281.176 209.934L282 210.5ZM305.909 165.151L306.857 165.47L310.948 153.319L310 153L309.052 152.681L304.961 164.832L305.909 165.151Z" fill="url(#paint1_linear_272_3125)"/>
</g>
<g clip-path="url(#clip3_272_3125)">
<rect x="25" y="134" width="8" height="5" rx="1" fill="#EFF2F2"/>
<rect x="25" y="147" width="8" height="5" rx="1" fill="#EFF2F2"/>
<rect x="25" y="160" width="8" height="5" rx="1" fill="#EFF2F2"/>
<rect x="25" y="173" width="8" height="5" rx="1" fill="#EFF2F2"/>
<rect x="25" y="186" width="8" height="5" rx="1" fill="#EFF2F2"/>
<rect x="25" y="199" width="8" height="5" rx="1" fill="#EFF2F2"/>
<rect x="25" y="212" width="8" height="5" rx="1" fill="#EFF2F2"/>
<rect x="25" y="225" width="8" height="5" rx="1" fill="#EFF2F2"/>
<rect x="25" y="238" width="8" height="5" rx="1" fill="#EFF2F2"/>
<rect x="25" y="251" width="8" height="5" rx="1" fill="#EFF2F2"/>
<rect x="25" y="264" width="8" height="5" rx="1" fill="#EFF2F2"/>
<rect x="25" y="277" width="8" height="5" rx="1" fill="#EFF2F2"/>
</g>
<rect x="29" y="131" width="42" height="10" rx="5" fill="#27909C"/>
<rect x="29" y="149" width="58" height="7" rx="3.5" fill="#7DBCC4"/>
</g>
<rect x="6.5" y="7.5" width="331" height="310" rx="14.5" stroke="#A9D3D7"/>
</g>
<defs>
<filter id="filter0_dddd_272_3125" x="0" y="0" width="415" height="383" filterUnits="userSpaceOnUse" color-interpolation-filters="sRGB">
<feFlood flood-opacity="0" result="BackgroundImageFix"/>
<feColorMatrix in="SourceAlpha" type="matrix" values="0 0 0 0 0 0 0 0 0 0 0 0 0 0 0 0 0 0 127 0" result="hardAlpha"/>
<feOffset dx="3" dy="2"/>
<feGaussianBlur stdDeviation="4.5"/>
<feColorMatrix type="matrix" values="0 0 0 0 0.0901961 0 0 0 0 0.337255 0 0 0 0 0.368627 0 0 0 0.1 0"/>
<feBlend mode="normal" in2="BackgroundImageFix" result="effect1_dropShadow_272_3125"/>
<feColorMatrix in="SourceAlpha" type="matrix" values="0 0 0 0 0 0 0 0 0 0 0 0 0 0 0 0 0 0 127 0" result="hardAlpha"/>
<feOffset dx="13" dy="10"/>
<feGaussianBlur stdDeviation="8"/>
<feColorMatrix type="matrix" values="0 0 0 0 0.0901961 0 0 0 0 0.337255 0 0 0 0 0.368627 0 0 0 0.09 0"/>
<feBlend mode="normal" in2="effect1_dropShadow_272_3125" result="effect2_dropShadow_272_3125"/>
<feColorMatrix in="SourceAlpha" type="matrix" values="0 0 0 0 0 0 0 0 0 0 0 0 0 0 0 0 0 0 127 0" result="hardAlpha"/>
<feOffset dx="29" dy="22"/>
<feGaussianBlur stdDeviation="11"/>
<feColorMatrix type="matrix" values="0 0 0 0 0.0901961 0 0 0 0 0.337255 0 0 0 0 0.368627 0 0 0 0.05 0"/>
<feBlend mode="normal" in2="effect2_dropShadow_272_3125" result="effect3_dropShadow_272_3125"/>
<feColorMatrix in="SourceAlpha" type="matrix" values="0 0 0 0 0 0 0 0 0 0 0 0 0 0 0 0 0 0 127 0" result="hardAlpha"/>
<feOffset dx="51" dy="39"/>
<feGaussianBlur stdDeviation="13"/>
<feColorMatrix type="matrix" values="0 0 0 0 0.0901961 0 0 0 0 0.337255 0 0 0 0 0.368627 0 0 0 0.01 0"/>
<feBlend mode="normal" in2="effect3_dropShadow_272_3125" result="effect4_dropShadow_272_3125"/>
<feBlend mode="normal" in="SourceGraphic" in2="effect4_dropShadow_272_3125" result="shape"/>
</filter>
<filter id="filter1_f_272_3125" x="-197" y="-171" width="749" height="463" filterUnits="userSpaceOnUse" color-interpolation-filters="sRGB">
<feFlood flood-opacity="0" result="BackgroundImageFix"/>
<feBlend mode="normal" in="SourceGraphic" in2="BackgroundImageFix" result="shape"/>
<feGaussianBlur stdDeviation="90" result="effect1_foregroundBlur_272_3125"/>
</filter>
<filter id="filter2_f_272_3125" x="-77" y="-63" width="425" height="193" filterUnits="userSpaceOnUse" color-interpolation-filters="sRGB">
<feFlood flood-opacity="0" result="BackgroundImageFix"/>
<feBlend mode="normal" in="SourceGraphic" in2="BackgroundImageFix" result="shape"/>
<feGaussianBlur stdDeviation="40" result="effect1_foregroundBlur_272_3125"/>
</filter>
<filter id="filter3_f_272_3125" x="45" y="-63" width="283" height="193" filterUnits="userSpaceOnUse" color-interpolation-filters="sRGB">
<feFlood flood-opacity="0" result="BackgroundImageFix"/>
<feBlend mode="normal" in="SourceGraphic" in2="BackgroundImageFix" result="shape"/>
<feGaussianBlur stdDeviation="40" result="effect1_foregroundBlur_272_3125"/>
</filter>
<filter id="filter4_f_272_3125" x="167" y="-63" width="283" height="193" filterUnits="userSpaceOnUse" color-interpolation-filters="sRGB">
<feFlood flood-opacity="0" result="BackgroundImageFix"/>
<feBlend mode="normal" in="SourceGraphic" in2="BackgroundImageFix" result="shape"/>
<feGaussianBlur stdDeviation="40" result="effect1_foregroundBlur_272_3125"/>
</filter>
<linearGradient id="paint0_linear_272_3125" x1="172.5" y1="153" x2="172.5" y2="307" gradientUnits="userSpaceOnUse">
<stop stop-color="#A9D3D7"/>
<stop offset="1" stop-color="#FAFBFB"/>
</linearGradient>
<linearGradient id="paint1_linear_272_3125" x1="310" y1="213.003" x2="35" y2="213.003" gradientUnits="userSpaceOnUse">
<stop stop-color="#52A6B0"/>
<stop offset="1" stop-color="#27909C"/>
</linearGradient>
<clipPath id="clip0_272_3125">
<rect x="6" y="7" width="332" height="311" rx="15" fill="white"/>
</clipPath>
<clipPath id="clip1_272_3125">
<path d="M7 8H338V59H7V8Z" fill="white"/>
</clipPath>
<clipPath id="clip2_272_3125">
<rect width="292" height="47" fill="white" transform="translate(29 68)"/>
</clipPath>
<clipPath id="clip3_272_3125">
<rect width="8" height="156" fill="white" transform="translate(25 134)"/>
</clipPath>
</defs>
</svg>
