<svg width="20" height="21" viewBox="0 0 20 21" fill="none" xmlns="http://www.w3.org/2000/svg">
<path d="M16.875 3.625H10.625V2.375C10.625 2.20924 10.5592 2.05027 10.4419 1.93306C10.3247 1.81585 10.1658 1.75 10 1.75C9.83424 1.75 9.67527 1.81585 9.55806 1.93306C9.44085 2.05027 9.375 2.20924 9.375 2.375V3.625H3.125C2.79348 3.625 2.47554 3.7567 2.24112 3.99112C2.0067 4.22554 1.875 4.54348 1.875 4.875V14.25C1.875 14.5815 2.0067 14.8995 2.24112 15.1339C2.47554 15.3683 2.79348 15.5 3.125 15.5H6.2L4.51172 17.6094C4.40812 17.7389 4.36021 17.9042 4.37852 18.0691C4.39683 18.2339 4.47987 18.3847 4.60938 18.4883C4.73888 18.5919 4.90423 18.6398 5.06905 18.6215C5.23388 18.6032 5.38468 18.5201 5.48828 18.3906L7.8 15.5H12.2L14.5117 18.3906C14.563 18.4547 14.6264 18.5081 14.6984 18.5477C14.7703 18.5874 14.8493 18.6124 14.9309 18.6215C15.0126 18.6306 15.0952 18.6235 15.174 18.6006C15.2529 18.5777 15.3265 18.5396 15.3906 18.4883C15.4547 18.437 15.5081 18.3736 15.5477 18.3016C15.5874 18.2297 15.6124 18.1507 15.6215 18.0691C15.6305 17.9874 15.6235 17.9048 15.6006 17.826C15.5777 17.7471 15.5396 17.6735 15.4883 17.6094L13.8 15.5H16.875C17.2065 15.5 17.5245 15.3683 17.7589 15.1339C17.9933 14.8995 18.125 14.5815 18.125 14.25V4.875C18.125 4.54348 17.9933 4.22554 17.7589 3.99112C17.5245 3.7567 17.2065 3.625 16.875 3.625ZM16.875 14.25H3.125V4.875H16.875V14.25ZM8.125 9.875V11.75C8.125 11.9158 8.05915 12.0747 7.94194 12.1919C7.82473 12.3092 7.66576 12.375 7.5 12.375C7.33424 12.375 7.17527 12.3092 7.05806 12.1919C6.94085 12.0747 6.875 11.9158 6.875 11.75V9.875C6.875 9.70924 6.94085 9.55027 7.05806 9.43306C7.17527 9.31585 7.33424 9.25 7.5 9.25C7.66576 9.25 7.82473 9.31585 7.94194 9.43306C8.05915 9.55027 8.125 9.70924 8.125 9.875ZM10.625 8.625V11.75C10.625 11.9158 10.5592 12.0747 10.4419 12.1919C10.3247 12.3092 10.1658 12.375 10 12.375C9.83424 12.375 9.67527 12.3092 9.55806 12.1919C9.44085 12.0747 9.375 11.9158 9.375 11.75V8.625C9.375 8.45924 9.44085 8.30027 9.55806 8.18306C9.67527 8.06585 9.83424 8 10 8C10.1658 8 10.3247 8.06585 10.4419 8.18306C10.5592 8.30027 10.625 8.45924 10.625 8.625ZM13.125 7.375V11.75C13.125 11.9158 13.0592 12.0747 12.9419 12.1919C12.8247 12.3092 12.6658 12.375 12.5 12.375C12.3342 12.375 12.1753 12.3092 12.0581 12.1919C11.9408 12.0747 11.875 11.9158 11.875 11.75V7.375C11.875 7.20924 11.9408 7.05027 12.0581 6.93306C12.1753 6.81585 12.3342 6.75 12.5 6.75C12.6658 6.75 12.8247 6.81585 12.9419 6.93306C13.0592 7.05027 13.125 7.20924 13.125 7.375Z" fill="#27909C"/>
</svg>
