<svg width="20" height="21" viewBox="0 0 20 21" fill="none" xmlns="http://www.w3.org/2000/svg">
<path d="M16.25 3.625H3.75C3.41848 3.625 3.10054 3.7567 2.86612 3.99112C2.6317 4.22554 2.5 4.54348 2.5 4.875V9.25C2.5 13.3687 4.49375 15.8648 6.16641 17.2336C7.96797 18.707 9.76016 19.207 9.83828 19.2281C9.9457 19.2573 10.059 19.2573 10.1664 19.2281C10.2445 19.207 12.0344 18.707 13.8383 17.2336C15.5063 15.8648 17.5 13.3687 17.5 9.25V4.875C17.5 4.54348 17.3683 4.22554 17.1339 3.99112C16.8995 3.7567 16.5815 3.625 16.25 3.625ZM16.25 9.25C16.25 12.1461 15.1828 14.4969 13.0781 16.2359C12.1619 16.9904 11.12 17.5775 10 17.9703C8.89469 17.5843 7.86558 17.0077 6.95938 16.2664C4.82969 14.5242 3.75 12.1641 3.75 9.25V4.875H16.25V9.25ZM6.43281 11.5672C6.31554 11.4499 6.24965 11.2909 6.24965 11.125C6.24965 10.9591 6.31554 10.8001 6.43281 10.6828C6.55009 10.5655 6.70915 10.4997 6.875 10.4997C7.04085 10.4997 7.19991 10.5655 7.31719 10.6828L8.75 12.1164L12.6828 8.18281C12.7409 8.12474 12.8098 8.07868 12.8857 8.04725C12.9616 8.01583 13.0429 7.99965 13.125 7.99965C13.2071 7.99965 13.2884 8.01583 13.3643 8.04725C13.4402 8.07868 13.5091 8.12474 13.5672 8.18281C13.6253 8.24088 13.6713 8.30982 13.7027 8.38569C13.7342 8.46156 13.7503 8.54288 13.7503 8.625C13.7503 8.70712 13.7342 8.78844 13.7027 8.86431C13.6713 8.94018 13.6253 9.00912 13.5672 9.06719L9.19219 13.4422C9.13414 13.5003 9.06521 13.5464 8.98934 13.5779C8.91346 13.6093 8.83213 13.6255 8.75 13.6255C8.66787 13.6255 8.58654 13.6093 8.51066 13.5779C8.43479 13.5464 8.36586 13.5003 8.30781 13.4422L6.43281 11.5672Z" fill="#27909C"/>
</svg>
